<?xml version="1.0" encoding="UTF-8" standalone="no"?>
<svg
   width="560.76312"
   height="91.021904"
   viewBox="0 0 560.76313 91.021904"
   version="1.1"
   id="svg1"
   xmlns="http://www.w3.org/2000/svg"
   xmlns:svg="http://www.w3.org/2000/svg">
  <defs
     id="defs1" />
  <!-- Generated by Pixelmator Pro 1.5.5 -->
  <path
     id="Path"
     d="m 62.5,28.002427 -6.6,6.6 c 10.8,10.8 10.8,28.2 0,38.8 -10.8,10.8 -28.2,10.8 -38.8,0 -10.8,-10.8 -10.8,-28.2 0,-38.8 l 17.1,-17.1 2.4,-2.4 v -12.9 l -25.8,25.8 c -14.4,14.4 -14.4,37.6 0,52 14.4,14.4 37.6,14.4 51.7,0 14.4,-14.5 14.4,-37.6 0,-52 z"
     fill="#ee4c2c"
     fill-opacity="1"
     stroke="none" />
  <path
     id="Path-1"
     d="m 54.4,21.602427 c 0,2.651 -2.149,4.8 -4.8,4.8 -2.651,0 -4.8,-2.149 -4.8,-4.8 0,-2.651 2.149,-4.8 4.8,-4.8 2.651,0 4.8,2.149 4.8,4.8 z"
     fill="#ee4c2c"
     fill-opacity="1"
     stroke="none" />
  <path
     style="font-size:129.333px;font-family:FreightSansLFPro;-inkscape-font-specification:FreightSansLFPro;letter-spacing:-2px"
     d="M 179.74943,82.514452 V 48.629208 h -31.42791 v 7.501313 h 23.40927 V 78.11713 c -5.17332,2.845326 -11.7693,4.914654 -19.39995,4.914654 -18.49462,0 -30.78125,-13.321298 -30.78125,-34.661242 0,-21.986609 12.9333,-34.531909 30.52258,-34.531909 8.40665,0 16.94263,2.845326 23.02128,6.725315 l 2.71599,-7.501313 c -5.94932,-3.6213239 -15.64929,-6.7253158 -25.60793,-6.7253158 -22.63328,0 -39.05857,16.5546228 -39.05857,42.2918888 0,25.607932 15.6493,41.903889 39.05857,41.903889 9.18264,0 19.65861,-2.715992 27.54792,-8.018645 z m 23.47861,6.337316 V 2.6092529e-6 L 195.20939,1.6813315 V 88.851768 Z M 273.65443,59.10518 c 0,-19.01195 -11.89863,-31.169251 -28.45326,-31.169251 -16.55462,0 -29.22925,12.5453 -29.22925,31.427917 0,19.01195 12.1573,31.169251 28.58259,31.169251 16.42529,0 29.09992,-12.5453 29.09992,-31.427917 z m -7.88931,0.258666 c 0,13.967963 -8.27731,23.926604 -20.82261,23.926604 -12.5453,0 -20.95195,-9.699975 -20.95195,-24.18527 0,-13.967963 8.27731,-23.926603 20.82262,-23.926603 12.5453,0 20.95194,9.699974 20.95194,24.185269 z m 74.56515,-0.258666 c 0,-19.01195 -11.89864,-31.169251 -28.45326,-31.169251 -16.55462,0 -29.22926,12.5453 -29.22926,31.427917 0,19.01195 12.1573,31.169251 28.58259,31.169251 16.42529,0 29.09993,-12.5453 29.09993,-31.427917 z m -7.88932,0.258666 c 0,13.967963 -8.27731,23.926604 -20.82261,23.926604 -12.5453,0 -20.95194,-9.699975 -20.95194,-24.18527 0,-13.967963 8.27731,-23.926603 20.82261,-23.926603 12.5453,0 20.95194,9.699974 20.95194,24.185269 z"
     id="text1"
     aria-label="Gloo 🚀" />
  <path
     style="font-size:129.333px;font-family:FreightSansLFPro;-inkscape-font-specification:FreightSansLFPro;letter-spacing:-2px;fill:#ee4c2c"
     d="m 365.68237,89.469907 h 7.75997 V 7.8607888 l -27.67726,8.4066442 0.388,7.630646 19.52929,-5.819984 z M 441.12079,48.98868 c 0,-25.737266 -10.9933,-42.0332222 -27.54793,-42.0332222 -16.68395,0 -28.19459,16.5546222 -28.19459,42.2918882 0,25.737266 10.99331,41.774557 27.67726,41.774557 16.55462,0 28.06526,-16.295957 28.06526,-42.033223 z m -8.27731,0.258666 c 0,23.797271 -8.14798,34.531909 -19.27062,34.531909 -11.25197,0 -20.04661,-10.993304 -20.04661,-34.790575 0,-24.314603 8.40664,-34.919908 19.52928,-34.919908 11.12264,0 19.78795,10.863971 19.78795,35.178574 z m 70.94381,-0.258666 c 0,-25.737266 -10.99331,-42.0332222 -27.54793,-42.0332222 -16.68396,0 -28.19459,16.5546222 -28.19459,42.2918882 0,25.737266 10.9933,41.774557 27.67726,41.774557 16.55462,0 28.06526,-16.295957 28.06526,-42.033223 z m -8.27731,0.258666 c 0,23.797271 -8.14798,34.531909 -19.27062,34.531909 -11.25197,0 -20.04661,-10.993304 -20.04661,-34.790575 0,-24.314603 8.40664,-34.919908 19.52928,-34.919908 11.12264,0 19.78795,10.863971 19.78795,35.178574 z m 28.39324,10.734638 26.6426,29.487923 h 10.2173 L 532.18053,58.429988 560.63379,30.235396 h -10.08797 l -26.6426,27.289262 h -0.25866 V 0.61814117 L 515.62591,2.2994701 V 89.469907 h 8.01865 V 59.981984 Z"
     id="text2"
     aria-label="100k" />
</svg>
